<svg width="20" height="18" viewBox="0 0 20 18" fill="none" xmlns="http://www.w3.org/2000/svg">
<path d="M18.1066 5.71529C18.0826 5.49182 18.0546 5.31274 18.0316 5.18511L19.9161 2.3584C20.0345 2.18068 20.027 1.94731 19.8974 1.77756C19.7677 1.60781 19.5446 1.53917 19.3419 1.60671L16.7212 2.48027C16.5827 2.27371 16.3773 2.00125 16.1036 1.7275C15.5491 1.173 14.6794 0.581055 13.5 0.581055C12.2775 0.581055 11.3727 0.923234 10.7266 1.485C10.0872 2.041 9.74997 2.76974 9.57746 3.45979C9.40517 4.14894 9.38984 4.82716 9.41472 5.32477C9.42197 5.46989 9.43273 5.60123 9.44442 5.71489C8.18927 5.9818 6.87591 5.57293 5.58934 4.8094C4.17064 3.96746 2.87015 2.74406 1.85358 1.7275C1.71259 1.58651 1.50131 1.54277 1.31593 1.61618C1.13054 1.6896 1.0065 1.86614 1.00027 2.06544C0.872873 6.14225 1.71338 11.0768 5.51119 13.5791C3.9138 14.4432 2.34766 14.8462 0.438012 15.0849C0.21938 15.1122 0.0444069 15.2795 0.00720739 15.4966C-0.0299922 15.7138 0.0793508 15.9297 0.276423 16.0283C5.43512 18.6076 12.1199 18.4212 15.9 13.3811C17.467 11.2917 17.9921 9.19699 18.1233 7.62258C18.1888 6.83625 18.1563 6.17914 18.1066 5.71529Z" fill="white"/>
</svg>
